<svg width="80" height="92" viewBox="0 0 80 92" fill="none" xmlns="http://www.w3.org/2000/svg">
<g clip-path="url(#clip0_1_5332)">
<path d="M79.6838 23.8935L60.1068 1.03062H1.69113" stroke="#245B7B" stroke-width="3" stroke-miterlimit="10"/>
<path d="M21.178 91.2197L1.39925 68.1274" stroke="#245B7B" stroke-width="3" stroke-miterlimit="10"/>
<path d="M1.64982 0.245432V68.7313" stroke="#245B7B" stroke-width="3" stroke-miterlimit="10"/>
<path d="M10.448 10.2514H53.475" stroke="#245B7B" stroke-width="8" stroke-miterlimit="10" stroke-linecap="round"/>
<path d="M10.448 10.2514V47.5228" stroke="#245B7B" stroke-width="8" stroke-miterlimit="10" stroke-linecap="round"/>
<path d="M77.0492 43.2532V39.9499C77.0492 36.9306 74.9549 34.4909 72.3695 34.4909H38.4639C35.8784 34.4909 33.7842 36.9306 33.7842 39.9499V46.5685C33.7842 49.5879 35.8784 52.0336 38.4639 52.0336H80.0483V91.9137H20.8363V80.3615H62.8137C65.3939 80.3615 67.4882 77.9158 67.4882 74.9025V68.2839C67.4882 65.2645 65.3939 62.8188 62.8137 62.8188H28.9029C26.3226 62.8188 24.2284 65.2645 24.2284 68.2839V71.412C24.2025 72.2152 24.1767 73.0184 24.156 73.3686C24.0474 76.0679 22.7805 76.8771 22.1755 77.5354L21.0069 78.5197H20.8363V22.7636H80.0483V50.0045L79.102 49.2014C78.4918 48.5492 77.2301 47.7339 77.1164 45.0346C77.106 44.7085 77.075 43.9899 77.0492 43.2532Z" fill="#245B7B"/>
</g>
<defs>
<clipPath id="clip0_1_5332">
<rect width="79.8974" height="91.6471" fill="white" transform="scale(1.00128)"/>
</clipPath>
</defs>
</svg>
