<svg width="16" height="16" viewBox="0 0 16 16" fill="none" xmlns="http://www.w3.org/2000/svg">
<path d="M8 6.5459V9.64409H12.3055C12.1164 10.6405 11.549 11.4841 10.6982 12.0514L13.2945 14.066C14.8072 12.6696 15.68 10.6187 15.68 8.18235C15.68 7.61508 15.6291 7.06957 15.5345 6.54599L8 6.5459Z" fill="#4285F4"/>
<path d="M3.51772 9.52246L2.93214 9.97071L0.859375 11.5852C2.17574 14.1961 4.87372 15.9998 8.00098 15.9998C10.1609 15.9998 11.9718 15.2871 13.2955 14.0653L10.6991 12.0507C9.9864 12.5307 9.0773 12.8216 8.00098 12.8216C5.92099 12.8216 4.15376 11.418 3.52099 9.52708L3.51772 9.52246Z" fill="#34A853"/>
<path d="M0.858121 4.41504C0.312695 5.49136 0 6.70593 0 8.00045C0 9.29498 0.312695 10.5095 0.858121 11.5859C0.858121 11.5931 3.51999 9.52041 3.51999 9.52041C3.35999 9.04041 3.26542 8.53135 3.26542 8.00037C3.26542 7.46939 3.35999 6.96033 3.51999 6.48033L0.858121 4.41504Z" fill="#FBBC05"/>
<path d="M8.00114 3.18546C9.17934 3.18546 10.2266 3.59272 11.063 4.37819L13.3539 2.0873C11.9648 0.792778 10.1612 0 8.00114 0C4.87389 0 2.17574 1.79636 0.859375 4.41456L3.52116 6.48002C4.15385 4.58909 5.92115 3.18546 8.00114 3.18546Z" fill="#EA4335"/>
</svg>
