<svg width="15" height="14" viewBox="0 0 15 14" fill="none" xmlns="http://www.w3.org/2000/svg">
<g clip-path="url(#clip0_1545_11364)">
<path d="M12.5 7.5V5.5C12.5 5.23478 12.3946 4.98043 12.2071 4.79289C12.0196 4.60536 11.7652 4.5 11.5 4.5H2C1.73478 4.5 1.48043 4.60536 1.29289 4.79289C1.10536 4.98043 1 5.23478 1 5.5V12.5C1 12.7652 1.10536 13.0196 1.29289 13.2071C1.48043 13.3946 1.73478 13.5 2 13.5H11.5C11.7652 13.5 12.0196 13.3946 12.2071 13.2071C12.3946 13.0196 12.5 12.7652 12.5 12.5V10" stroke="#FFD700" stroke-linecap="round" stroke-linejoin="round"/>
<path d="M4.34 2.00007L10.01 0.520072C10.0737 0.50212 10.1404 0.497264 10.206 0.505797C10.2717 0.514329 10.3349 0.536074 10.3919 0.569717C10.4489 0.603361 10.4985 0.648207 10.5377 0.701548C10.5769 0.754888 10.6049 0.815618 10.62 0.880072L10.9 2.00007" stroke="#FFD700" stroke-linecap="round" stroke-linejoin="round"/>
<path d="M13.5 7.5H11C10.7239 7.5 10.5 7.72386 10.5 8V9.5C10.5 9.77614 10.7239 10 11 10H13.5C13.7761 10 14 9.77614 14 9.5V8C14 7.72386 13.7761 7.5 13.5 7.5Z" stroke="#FFD700" stroke-linecap="round" stroke-linejoin="round"/>
</g>
<defs>
<clipPath id="clip0_1545_11364">
<rect width="14" height="14" fill="white" transform="translate(0.5)"/>
</clipPath>
</defs>
</svg>
