<svg width="21" height="22" viewBox="0 0 21 22" fill="none" xmlns="http://www.w3.org/2000/svg">
<path d="M1.45156 10.0628V14.5946C1.45156 19.1264 3.26831 20.9431 7.8001 20.9431H13.2403C17.7721 20.9431 19.5888 19.1264 19.5888 14.5946V10.0628" stroke="white" stroke-width="1.5" stroke-linecap="round" stroke-linejoin="round"/>
<path d="M10.5252 10.8501C12.3722 10.8501 13.7348 9.34619 13.5531 7.49916L12.887 0.756981H8.17353L7.49729 7.49916C7.31562 9.34619 8.67818 10.8501 10.5252 10.8501Z" stroke="white" stroke-width="1.5" stroke-linecap="round" stroke-linejoin="round"/>
<path d="M16.8939 10.8501C18.9327 10.8501 20.4265 9.1948 20.2247 7.16609L19.9421 4.39049C19.5787 1.76629 18.5694 0.756981 15.925 0.756981H12.8466L13.5531 7.83223C13.7247 9.49759 15.2286 10.8501 16.8939 10.8501Z" stroke="white" stroke-width="1.5" stroke-linecap="round" stroke-linejoin="round"/>
<path d="M4.10603 10.8501C5.77139 10.8501 7.27526 9.49759 7.43675 7.83223L7.6588 5.60166L8.14326 0.756981H5.06488C2.42049 0.756981 1.41118 1.76629 1.04783 4.39049L0.775316 7.16609C0.573455 9.1948 2.06723 10.8501 4.10603 10.8501Z" stroke="white" stroke-width="1.5" stroke-linecap="round" stroke-linejoin="round"/>
<path d="M10.5252 15.8966C8.83968 15.8966 8.00196 16.7343 8.00196 18.4199V20.9431H13.0485V18.4199C13.0485 16.7343 12.2108 15.8966 10.5252 15.8966Z" stroke="white" stroke-width="1.5" stroke-linecap="round" stroke-linejoin="round"/>
</svg>
