<?xml version="1.0" encoding="utf-8"?>
<svg xmlns="http://www.w3.org/2000/svg" width="1200" zoomAndPan="magnify" viewBox="6.255 30.531 895.317 568.828" height="900" preserveAspectRatio="xMidYMid meet" version="1.0">
  <defs>
    <clipPath id="8c116cff63">
      <path d="M 25.433594 380 L 626 380 L 626 594 L 25.433594 594 Z M 25.433594 380 " clip-rule="nonzero"/>
    </clipPath>
    <clipPath id="8e177473b6">
      <path d="M 25.433594 416 L 626 416 L 626 594 L 25.433594 594 Z M 25.433594 416 " clip-rule="nonzero"/>
    </clipPath>
  </defs>
  <path fill="#ffde59" d="M 421.164062 32.769531 C 417.335938 34.136719 413.695312 36.730469 412.140625 39.203125 C 409.476562 43.425781 377.597656 91.84375 363.328125 113.328125 C 354.933594 125.96875 354.078125 127.511719 354.617188 129.046875 C 355.125 130.488281 355.59375 130.746094 357.675781 130.746094 L 360.132812 130.746094 L 368.992188 117.273438 C 373.867188 109.863281 386.035156 91.414062 396.035156 76.277344 C 406.03125 61.136719 415.042969 47.332031 416.054688 45.597656 C 420.234375 38.4375 429.15625 36.425781 434.789062 41.371094 C 438.34375 44.488281 439.402344 47.371094 439.03125 52.910156 C 438.960938 53.957031 433.265625 63.09375 424.480469 76.246094 C 416.078125 88.824219 410.042969 98.480469 410.042969 99.34375 C 410.042969 101.945312 412.886719 103.695312 414.925781 102.347656 C 416.214844 101.496094 444.519531 58.300781 445.253906 56.066406 C 446.3125 52.851562 446.132812 47.128906 444.867188 43.59375 C 441.5625 34.371094 430.636719 29.382812 421.164062 32.769531 M 472.554688 32.785156 C 467.4375 34.554688 463.777344 37.988281 461.382812 43.261719 C 459.871094 46.59375 459.679688 52.753906 460.972656 56.417969 C 461.457031 57.792969 468.242188 68.582031 476.050781 80.394531 C 491.253906 103.390625 492.359375 104.644531 494.800781 101.632812 C 495.472656 100.804688 496.019531 99.644531 496.019531 99.054688 C 496.019531 98.464844 489.5625 88.269531 481.675781 76.398438 C 471.933594 61.742188 467.207031 54.070312 466.953125 52.488281 C 466.367188 48.878906 468.199219 44.105469 471.136719 41.59375 C 474.921875 38.351562 479.636719 37.777344 484.226562 39.996094 C 486.578125 41.136719 487.921875 42.785156 494.035156 52.027344 C 531.226562 108.273438 544.207031 127.800781 545.402344 129.304688 C 547.730469 132.238281 551.839844 131.441406 551.839844 128.054688 C 551.839844 127.214844 547.179688 119.589844 541.035156 110.378906 C 522.820312 83.058594 499.816406 48.1875 497.371094 44.191406 C 490.78125 33.417969 482.171875 29.460938 472.554688 32.785156 M 254.070312 144.078125 C 251.5 145.804688 249.847656 149.777344 250.542969 152.546875 C 250.792969 153.550781 251.964844 155.335938 253.144531 156.515625 L 255.285156 158.65625 L 650.796875 158.65625 L 653.367188 156.085938 C 655.828125 153.625 655.925781 153.375 655.628906 150.25 C 655.382812 147.683594 654.882812 146.558594 653.289062 144.964844 L 651.261719 142.9375 L 453.757812 142.773438 L 256.257812 142.609375 Z M 273.441406 170.375 C 267.867188 173.242188 267.867188 181.929688 273.441406 184.792969 C 274.289062 185.230469 277.054688 185.589844 279.585938 185.597656 L 284.183594 185.605469 L 285.160156 189.9375 C 286.074219 194 294.835938 237.28125 305.839844 292.113281 C 311.625 320.933594 311.433594 320.175781 314.230469 325.761719 C 316.96875 331.238281 319.320312 334.351562 324.246094 339.035156 C 331.335938 345.769531 340.671875 350.125 350.324219 351.203125 C 359.195312 352.191406 557.113281 351.597656 561.140625 350.570312 C 562.90625 350.121094 567.089844 348.4375 570.433594 346.828125 C 575.71875 344.292969 577.324219 343.097656 582.652344 337.738281 C 589.011719 331.347656 593.117188 324.855469 594.800781 318.546875 C 595.203125 317.03125 600.269531 292.34375 606.054688 263.691406 C 611.84375 235.035156 617.441406 207.402344 618.5 202.289062 C 619.558594 197.171875 620.75 191.324219 621.144531 189.292969 L 621.863281 185.605469 L 626.472656 185.597656 C 629.003906 185.589844 631.789062 185.226562 632.660156 184.785156 C 634.890625 183.65625 637.171875 180.015625 637.171875 177.585938 C 637.171875 175.152344 634.890625 171.515625 632.660156 170.386719 C 630.351562 169.21875 275.714844 169.207031 273.441406 170.375 M 300.328125 186.128906 C 300.328125 186.414062 306.117188 215.503906 313.191406 250.769531 C 320.902344 289.214844 326.554688 315.941406 327.3125 317.515625 C 331.738281 326.71875 340.046875 333.324219 349.367188 335.039062 C 352.019531 335.527344 383.792969 335.742188 453.976562 335.742188 C 564.191406 335.742188 558.359375 335.933594 565.492188 332.054688 C 569.992188 329.601562 575.875 323.453125 578.148438 318.816406 C 579.730469 315.585938 581.496094 307.847656 588.113281 275.109375 C 597.371094 229.339844 605.734375 187.152344 605.734375 186.234375 C 605.734375 185.824219 552.40625 185.605469 453.03125 185.605469 C 369.042969 185.605469 300.328125 185.839844 300.328125 186.128906 M 342.613281 206.988281 C 341.058594 207.808594 338.945312 209.675781 337.917969 211.136719 C 334.816406 215.539062 334.8125 215.410156 338.84375 253.9375 C 339.875 263.816406 341.609375 280.707031 342.695312 291.472656 C 344.9375 313.71875 345.300781 314.910156 350.910156 318.511719 C 353.644531 320.269531 354.296875 320.414062 358.507812 320.21875 C 362.515625 320.03125 363.429688 319.746094 365.566406 318.03125 C 369.097656 315.191406 370.949219 311.539062 370.960938 307.394531 C 370.964844 305.519531 369.675781 291.132812 368.09375 275.429688 C 366.511719 259.726562 364.609375 240.238281 363.859375 232.121094 C 363.113281 224.003906 362.234375 216.355469 361.910156 215.121094 C 361.089844 212.011719 357.707031 208.125 354.589844 206.710938 C 350.902344 205.035156 346.101562 205.148438 342.613281 206.988281 M 396.589844 206.210938 C 392.390625 207.882812 389.242188 211.621094 388.21875 216.136719 C 387.785156 218.042969 388.265625 231.121094 390.414062 276.070312 C 392.230469 313.980469 391.933594 311 394.226562 314.417969 C 396.953125 318.476562 400.339844 320.320312 405.097656 320.332031 C 411.125 320.351562 415.164062 317.664062 417.691406 311.949219 C 418.964844 309.0625 418.972656 308.726562 418.050781 288.535156 L 416.476562 253.9375 C 416.125 246.171875 415.660156 234.769531 415.445312 228.59375 C 415.230469 222.417969 414.78125 216.277344 414.445312 214.949219 C 413.664062 211.84375 410.429688 208.175781 407.160156 206.691406 C 404.375 205.425781 399.144531 205.1875 396.589844 206.210938 M 448.859375 206.039062 C 446.1875 206.910156 443.316406 209.085938 441.628906 211.523438 L 439.878906 214.046875 L 439.707031 262.222656 L 439.539062 310.398438 L 441.070312 313.285156 C 446.25 323.039062 460.078125 322.882812 464.90625 313.011719 L 466.527344 309.695312 L 466.183594 214.046875 L 464.347656 211.394531 C 461.171875 206.816406 454.050781 204.351562 448.859375 206.039062 M 498.714844 206.859375 C 497.199219 207.613281 495.269531 209.128906 494.429688 210.230469 C 491.320312 214.308594 491.457031 213.089844 489.648438 252.652344 C 489.097656 264.46875 488.535156 276.28125 487.949219 288.089844 C 486.824219 310.871094 486.890625 311.613281 490.410156 315.625 C 497.164062 323.316406 508.609375 321.757812 512.648438 312.59375 C 513.804688 309.980469 514.125 306.179688 515.578125 277.949219 C 518.839844 214.625 518.753906 217.316406 517.601562 214.300781 C 514.734375 206.804688 505.875 203.316406 498.714844 206.859375 M 552.917969 206.148438 C 550.082031 207 546.816406 209.820312 545.359375 212.675781 C 544.261719 214.828125 543.691406 218.785156 542.152344 234.9375 C 541.121094 245.738281 539.835938 258.765625 539.292969 263.882812 C 534.535156 308.957031 534.503906 309.492188 536.421875 313.25 C 540.769531 321.769531 552.921875 323.117188 558.460938 315.691406 C 561.210938 312.011719 561.417969 311.085938 563.03125 295.539062 C 563.90625 287.125 565.929688 267.539062 567.535156 252.011719 C 569.140625 236.484375 570.625 222.476562 570.832031 220.878906 C 571.890625 212.8125 565.535156 205.453125 557.613281 205.566406 C 556.023438 205.585938 553.914062 205.847656 552.917969 206.148438 " fill-opacity="1" fill-rule="evenodd"/>
  <g clip-path="url(#8c116cff63)">
    <path fill="#f3c5a3" d="M 380.761719 380.855469 C 381.867188 380.859375 382.972656 380.84375 384.082031 380.828125 C 394.027344 380.78125 403.589844 383.132812 413.175781 385.554688 C 437.222656 391.597656 460.210938 394.117188 484.921875 391.546875 C 511.050781 388.828125 511.050781 388.828125 519.183594 391.890625 C 521.34375 392.902344 523.253906 394.117188 524.746094 395.992188 C 526.691406 398.828125 527.585938 401.890625 528.054688 405.273438 C 528.214844 408.269531 527.359375 410.960938 526.015625 413.617188 C 524.570312 415.652344 522.929688 417.445312 520.828125 418.804688 C 519.789062 419.199219 518.734375 419.546875 517.671875 419.867188 L 516.695312 420.164062 C 515.558594 420.503906 514.417969 420.835938 513.277344 421.164062 L 511.921875 421.554688 C 508.929688 422.417969 505.929688 423.25 502.925781 424.070312 C 501.597656 424.4375 500.269531 424.816406 498.941406 425.203125 C 492.304688 427.074219 486.253906 427.296875 479.425781 426.355469 C 468.058594 424.808594 454.894531 425.214844 443.921875 428.714844 C 445.003906 429.917969 446.058594 430.5625 447.515625 431.253906 C 447.945312 431.460938 448.375 431.667969 448.820312 431.882812 L 450.203125 432.546875 C 460.171875 437.414062 460.171875 437.414062 462.792969 440.035156 C 464.308594 440.046875 465.8125 440.023438 467.324219 439.976562 C 473.503906 439.878906 479.710938 441.152344 485.78125 442.207031 C 486.867188 442.394531 487.957031 442.582031 489.042969 442.765625 L 491.160156 443.132812 L 492.125 443.296875 C 493.734375 443.578125 495.3125 443.914062 496.890625 444.328125 C 499.5 444.960938 501.394531 444.578125 503.914062 443.851562 C 505.773438 443.265625 507.625 442.660156 509.472656 442.039062 C 510.90625 441.570312 512.335938 441.097656 513.769531 440.628906 L 514.902344 440.253906 C 517.800781 439.308594 520.699219 438.378906 523.609375 437.46875 L 524.910156 437.058594 C 526.605469 436.523438 528.300781 435.992188 529.996094 435.460938 C 538.898438 432.808594 538.898438 432.808594 547.21875 428.773438 C 547.777344 428.445312 548.339844 428.117188 548.902344 427.789062 C 549.453125 427.46875 550 427.148438 550.550781 426.824219 C 555.09375 424.167969 559.589844 422.714844 564.675781 421.433594 C 569.320312 420.238281 573.195312 418.316406 577.117188 415.59375 C 577.730469 415.179688 578.34375 414.765625 578.957031 414.351562 C 579.820312 413.769531 580.683594 413.183594 581.546875 412.597656 C 586.933594 408.972656 592.484375 406.929688 598.949219 406.171875 C 602.988281 405.914062 606.582031 406.253906 610.320312 407.847656 C 613.742188 409.664062 616.347656 412.230469 619.066406 414.9375 C 619.816406 415.679688 620.574219 416.417969 621.332031 417.152344 C 621.816406 417.628906 622.292969 418.105469 622.773438 418.582031 L 624.089844 419.878906 C 625.09375 421.164062 625.09375 421.164062 625.542969 422.636719 C 625.566406 423.996094 625.566406 423.996094 625.167969 424.902344 C 623.03125 427.289062 620.648438 428.550781 617.78125 429.921875 C 612.570312 432.527344 607.722656 435.511719 602.847656 438.695312 C 600.484375 440.222656 598.085938 441.703125 595.695312 443.191406 C 583.945312 450.523438 572.175781 457.964844 561.378906 466.660156 C 558.703125 468.804688 555.992188 470.914062 553.203125 472.910156 L 551.777344 473.949219 C 547.492188 476.65625 542.273438 477.523438 537.402344 478.640625 C 535.21875 479.144531 533.03125 479.65625 530.847656 480.175781 L 529.445312 480.507812 C 519.933594 482.761719 510.46875 485.214844 501.011719 487.683594 L 499.855469 487.984375 C 492.953125 489.78125 486.4375 491.621094 480.25 495.234375 L 478.640625 496.171875 C 477.699219 496.722656 476.765625 497.28125 475.839844 497.855469 C 472.246094 499.816406 468.382812 500.105469 464.355469 500.046875 C 453.695312 499.390625 442.785156 494.992188 432.570312 491.988281 C 407.398438 484.59375 381.902344 477.152344 355.992188 472.851562 L 354.957031 472.683594 C 341.367188 470.453125 328.644531 469.761719 315.121094 473.058594 L 313.71875 473.398438 C 305.238281 475.488281 297.042969 478.488281 288.832031 481.433594 C 286.535156 482.257812 284.230469 483.066406 281.917969 483.859375 C 259.765625 491.476562 238.175781 501.039062 216.867188 510.734375 C 212.796875 512.585938 208.726562 514.425781 204.636719 516.234375 L 203.472656 516.75 C 201.671875 517.546875 199.867188 518.34375 198.066406 519.132812 C 194.425781 520.738281 190.832031 522.4375 187.285156 524.238281 C 185.570312 525.09375 183.839844 525.859375 182.074219 526.605469 C 179.792969 527.582031 177.558594 528.605469 175.351562 529.730469 C 172.0625 531.402344 168.726562 532.957031 165.382812 534.507812 L 164.519531 534.90625 C 161.476562 536.316406 158.429688 537.71875 155.375 539.109375 L 153.886719 539.789062 C 152.984375 540.199219 152.082031 540.609375 151.179688 541.015625 C 148.605469 542.1875 146.070312 543.425781 143.546875 544.699219 C 139.65625 546.664062 135.695312 548.441406 131.707031 550.195312 L 129.484375 551.175781 C 128.335938 551.683594 127.1875 552.191406 126.039062 552.695312 C 123.503906 553.816406 120.972656 554.941406 118.441406 556.074219 C 110.734375 559.523438 102.996094 562.910156 95.230469 566.234375 L 94 566.761719 C 91.652344 567.765625 89.308594 568.765625 86.960938 569.761719 L 84.714844 570.71875 C 78.617188 573.316406 72.472656 575.796875 66.304688 578.234375 L 64.84375 578.8125 C 55.078125 582.675781 45.265625 586.40625 35.429688 590.085938 C 32.097656 591.335938 28.765625 592.582031 25.433594 593.832031 L 25.433594 447.113281 C 26.945312 446.734375 28.199219 446.535156 29.734375 446.421875 L 31.210938 446.3125 L 32.832031 446.195312 L 36.351562 445.929688 L 38.25 445.785156 C 72.082031 443.234375 105.972656 439.875 139.578125 435.179688 C 141.363281 434.929688 143.152344 434.683594 144.9375 434.441406 C 160.660156 432.300781 176.34375 429.984375 191.980469 427.296875 L 193.378906 427.058594 C 236.773438 419.605469 280.089844 410.589844 322.929688 396.054688 L 324 395.691406 C 325.613281 395.144531 327.226562 394.589844 328.832031 394.019531 C 333.1875 392.519531 337.484375 391.695312 342.011719 390.972656 C 345.605469 390.378906 348.652344 389.046875 351.949219 387.523438 C 361.339844 383.296875 370.421875 380.796875 380.761719 380.855469 " fill-opacity="1" fill-rule="nonzero"/>
  </g>
  <g clip-path="url(#8e177473b6)">
    <path fill="#e3aa88" d="M 619.90625 416.917969 C 622.082031 417.898438 623.597656 419.320312 625.09375 421.164062 C 625.714844 422.582031 625.714844 422.582031 625.566406 423.996094 C 624.570312 425.660156 623.285156 426.945312 621.652344 427.988281 C 620.375 428.667969 619.085938 429.300781 617.78125 429.921875 C 612.570312 432.527344 607.722656 435.511719 602.847656 438.695312 C 600.484375 440.222656 598.085938 441.703125 595.695312 443.191406 C 583.945312 450.523438 572.175781 457.964844 561.378906 466.660156 C 558.703125 468.804688 555.992188 470.914062 553.203125 472.914062 L 551.777344 473.949219 C 547.492188 476.65625 542.273438 477.523438 537.402344 478.640625 C 535.21875 479.144531 533.03125 479.65625 530.847656 480.175781 L 529.445312 480.507812 C 519.933594 482.761719 510.46875 485.214844 501.011719 487.683594 L 499.855469 487.984375 C 492.953125 489.78125 486.4375 491.621094 480.25 495.234375 L 478.640625 496.171875 C 477.699219 496.722656 476.765625 497.28125 475.839844 497.855469 C 472.246094 499.816406 468.382812 500.105469 464.355469 500.046875 C 453.695312 499.390625 442.785156 494.992188 432.570312 491.988281 C 407.398438 484.59375 381.902344 477.152344 355.992188 472.855469 L 354.957031 472.683594 C 341.367188 470.453125 328.644531 469.761719 315.121094 473.058594 L 313.71875 473.398438 C 305.238281 475.488281 297.042969 478.488281 288.832031 481.433594 C 286.535156 482.257812 284.230469 483.066406 281.917969 483.859375 C 259.765625 491.476562 238.175781 501.039062 216.867188 510.734375 C 212.796875 512.585938 208.726562 514.425781 204.636719 516.234375 L 203.472656 516.75 C 201.671875 517.546875 199.867188 518.34375 198.066406 519.132812 C 194.425781 520.738281 190.832031 522.4375 187.285156 524.238281 C 185.570312 525.09375 183.839844 525.859375 182.074219 526.605469 C 179.792969 527.582031 177.558594 528.605469 175.351562 529.730469 C 172.0625 531.402344 168.726562 532.957031 165.382812 534.507812 L 164.519531 534.90625 C 161.476562 536.316406 158.429688 537.71875 155.375 539.109375 L 153.886719 539.789062 C 152.984375 540.199219 152.082031 540.609375 151.179688 541.015625 C 148.605469 542.1875 146.070312 543.425781 143.546875 544.699219 C 139.65625 546.664062 135.695312 548.441406 131.707031 550.195312 L 129.484375 551.175781 C 128.335938 551.683594 127.1875 552.191406 126.039062 552.695312 C 123.503906 553.816406 120.972656 554.941406 118.441406 556.074219 C 110.734375 559.523438 102.996094 562.910156 95.230469 566.234375 L 94 566.761719 C 91.652344 567.765625 89.308594 568.765625 86.960938 569.761719 L 84.714844 570.71875 C 78.617188 573.316406 72.472656 575.796875 66.304688 578.234375 L 64.84375 578.8125 C 55.078125 582.675781 45.265625 586.40625 35.429688 590.085938 C 32.097656 591.335938 28.765625 592.582031 25.433594 593.832031 L 25.433594 547.128906 C 28.75 545.746094 32.027344 544.386719 35.398438 543.171875 L 36.566406 542.75 L 39.007812 541.863281 C 41.164062 541.082031 43.316406 540.296875 45.46875 539.511719 L 46.765625 539.039062 C 50.441406 537.699219 54.097656 536.316406 57.753906 534.921875 C 61.71875 533.40625 65.695312 531.921875 69.695312 530.496094 C 74.621094 528.742188 79.515625 526.914062 84.410156 525.074219 C 92.804688 521.910156 101.21875 518.804688 109.640625 515.710938 C 115.765625 513.457031 121.890625 511.199219 128.003906 508.914062 L 129.539062 508.335938 L 132.570312 507.203125 C 143.253906 503.207031 153.976562 499.34375 164.734375 495.550781 C 167.746094 494.492188 170.75 493.417969 173.757812 492.34375 C 177.371094 491.054688 180.984375 489.757812 184.597656 488.453125 C 192.785156 485.503906 200.980469 482.585938 209.214844 479.769531 C 212.074219 478.789062 214.933594 477.800781 217.789062 476.808594 C 231.097656 472.191406 244.421875 467.605469 257.765625 463.089844 C 258.902344 462.707031 260.039062 462.320312 261.175781 461.933594 C 297.9375 449.457031 297.9375 449.457031 314.222656 445.554688 C 315.097656 445.34375 315.972656 445.125 316.84375 444.894531 C 326.9375 442.246094 339.078125 441.988281 349.207031 444.546875 C 350.597656 444.925781 351.980469 445.328125 353.355469 445.75 C 354.824219 446.191406 356.296875 446.585938 357.777344 446.976562 C 362.636719 448.265625 367.382812 449.699219 372.070312 451.503906 C 375.132812 452.671875 378.242188 453.632812 381.378906 454.570312 C 391.054688 457.496094 400.476562 461.042969 409.878906 464.742188 C 419.453125 468.503906 429.148438 471.941406 438.839844 475.390625 C 440.941406 476.140625 443.042969 476.890625 445.144531 477.644531 C 446.519531 478.140625 447.894531 478.632812 449.269531 479.125 C 449.882812 479.34375 450.496094 479.5625 451.109375 479.785156 C 451.9375 480.082031 452.761719 480.375 453.589844 480.667969 C 454.039062 480.828125 454.488281 480.992188 454.953125 481.15625 C 463.183594 483.789062 473.863281 481.628906 482.050781 479.855469 C 484.082031 479.40625 486.109375 478.9375 488.132812 478.46875 C 494.808594 476.925781 501.515625 475.570312 508.234375 474.238281 L 516.570312 472.585938 C 521.207031 471.664062 525.839844 470.730469 530.46875 469.785156 C 531.21875 469.632812 531.964844 469.480469 532.714844 469.328125 C 534.714844 468.921875 536.710938 468.507812 538.707031 468.082031 C 539.394531 467.9375 540.082031 467.789062 540.769531 467.648438 C 541.847656 467.421875 542.925781 467.1875 544.003906 466.949219 L 544.984375 466.75 C 548.054688 466.054688 550.332031 464.527344 552.828125 462.660156 C 555.105469 461.007812 557.511719 459.585938 559.925781 458.140625 C 565.324219 454.882812 570.632812 451.496094 575.933594 448.082031 C 577.472656 447.09375 579.015625 446.105469 580.558594 445.121094 C 588.621094 439.984375 596.554688 434.738281 604.335938 429.183594 L 605.433594 428.402344 C 613.019531 423.089844 613.019531 423.089844 619.90625 416.917969 " fill-opacity="1" fill-rule="nonzero"/>
  </g>
  <path fill="#f2a688" d="M 512.292969 393.625 C 516.316406 393.429688 516.316406 393.429688 518.210938 394.390625 C 520.90625 396.554688 522.851562 399.632812 524.304688 402.738281 C 524.824219 405.269531 524.9375 407.617188 524.277344 410.136719 C 523.4375 412.429688 522.386719 414.429688 520.71875 416.226562 C 518.5625 418.011719 515.996094 418.800781 513.277344 419.277344 C 512.445312 419.34375 511.609375 419.394531 510.777344 419.425781 L 509.378906 419.488281 L 507.941406 419.542969 L 506.472656 419.605469 C 505.28125 419.65625 504.089844 419.703125 502.898438 419.75 C 501.144531 414.28125 499.554688 408.777344 498.03125 403.238281 L 497.382812 400.886719 C 496.859375 398.996094 496.339844 397.109375 495.820312 395.21875 C 497.0625 394.597656 498.109375 394.59375 499.496094 394.492188 L 501.1875 394.367188 C 503.582031 394.203125 505.976562 394.046875 508.375 393.902344 C 509.683594 393.820312 510.984375 393.726562 512.292969 393.625 " fill-opacity="1" fill-rule="nonzero"/>
  <path fill="#e4ab89" d="M 505.257812 422.582031 C 503.445312 424.390625 500.59375 424.730469 498.179688 425.410156 L 496.726562 425.847656 C 491.046875 427.386719 485.207031 427.171875 479.425781 426.355469 C 468.058594 424.804688 454.890625 425.214844 443.921875 428.714844 C 445.003906 429.917969 446.058594 430.5625 447.515625 431.253906 C 447.945312 431.460938 448.375 431.667969 448.820312 431.882812 L 450.203125 432.546875 C 454.449219 434.617188 458.4375 436.878906 462.324219 439.5625 L 461.851562 440.507812 C 445.34375 446.007812 417.3125 436.507812 400.515625 433.429688 L 400.515625 432.488281 L 401.660156 432.511719 C 413.785156 432.714844 424.65625 431.167969 436.441406 428.347656 L 437.617188 428.066406 C 438.339844 427.894531 439.0625 427.71875 439.785156 427.542969 C 452.5 424.503906 465.648438 424.238281 478.652344 423.988281 C 481.660156 423.929688 484.667969 423.867188 487.675781 423.796875 C 488.707031 423.773438 489.738281 423.753906 490.769531 423.738281 C 494.261719 423.667969 497.632812 423.40625 501.074219 422.777344 C 502.488281 422.570312 503.832031 422.546875 505.257812 422.582031 " fill-opacity="1" fill-rule="nonzero"/>
  <path fill="#e6b394" d="M 566.117188 421.636719 L 565.175781 422.109375 L 565.175781 423.050781 C 563.25 423.832031 561.324219 424.605469 559.394531 425.382812 L 557.738281 426.050781 L 556.144531 426.691406 L 554.675781 427.285156 C 553.617188 427.679688 552.597656 428 551.492188 428.242188 L 551.492188 426.828125 C 552.257812 425.816406 552.96875 425.378906 554.101562 424.804688 C 562.152344 421.5 562.152344 421.5 566.117188 421.636719 " fill-opacity="1" fill-rule="nonzero"/>
</svg>