<svg width="20" height="20" viewBox="0 0 20 20" fill="none" xmlns="http://www.w3.org/2000/svg">
<path d="M3.33984 0.5H5.24023C6.2462 0.500041 6.93203 0.764252 7.36719 1.2002C7.74785 1.58171 7.99679 2.15471 8.0498 2.96582L8.05957 3.32812V5.23047C8.05949 6.23635 7.79593 6.92282 7.35938 7.35938C6.92282 7.79593 6.23635 8.05949 5.23047 8.05957H3.33008C2.32415 8.05957 1.63781 7.79584 1.20117 7.35938C0.764613 6.92282 0.500082 6.23635 0.5 5.23047V3.33008C0.5 2.32395 0.764652 1.63769 1.20215 1.20117C1.63982 0.764643 2.32841 0.500027 3.33984 0.5Z" fill="#FFDB0D" stroke="#FFDB0D"/>
<path d="M14.7701 0.5H16.6705C17.6763 0.500082 18.3628 0.764613 18.7994 1.20117C19.2358 1.63781 19.4996 2.32415 19.4996 3.33008V5.23047C19.4995 6.23635 19.2359 6.92282 18.7994 7.35938C18.3628 7.79593 17.6763 8.05949 16.6705 8.05957H14.7701C13.7642 8.05957 13.0778 7.79584 12.6412 7.35938C12.2046 6.92282 11.9401 6.23635 11.94 5.23047V3.33008C11.94 2.32394 12.2045 1.6378 12.6412 1.20117C13.0778 0.764545 13.7639 0.5 14.7701 0.5Z" fill="#FFDB0D" stroke="#FFDB0D"/>
<path d="M14.7701 11.9301H16.6705C17.6763 11.9301 18.3628 12.1947 18.7994 12.6312C19.2358 13.0679 19.4996 13.7542 19.4996 14.7601V16.6605C19.4995 17.6664 19.2359 18.3529 18.7994 18.7894C18.3628 19.226 17.6763 19.4895 16.6705 19.4896H14.7701C13.7642 19.4896 13.0778 19.2259 12.6412 18.7894C12.2046 18.3529 11.9401 17.6664 11.94 16.6605V14.7601C11.94 13.754 12.2045 13.0679 12.6412 12.6312C13.0778 12.1946 13.7639 11.9301 14.7701 11.9301Z" fill="#FFDB0D" stroke="#FFDB0D"/>
<path d="M3.33984 11.9301H5.24023C6.24639 11.9301 6.93215 12.1943 7.36719 12.6312C7.74789 13.0136 7.9967 13.5885 8.0498 14.4037L8.05957 14.7679V16.6703C8.05953 17.6762 7.7959 18.3626 7.35938 18.7992C6.92282 19.2358 6.23635 19.5003 5.23047 19.5004H3.33008C2.32395 19.5004 1.63769 19.2357 1.20117 18.7982C0.764595 18.3606 0.500082 17.6719 0.5 16.6605V14.7601C0.5 13.754 0.764652 13.0677 1.20215 12.6312C1.63982 12.1947 2.32841 11.9301 3.33984 11.9301Z" fill="#FFDB0D" stroke="#FFDB0D"/>
</svg>
