<svg width="22" height="22" viewBox="0 0 22 22" fill="none" xmlns="http://www.w3.org/2000/svg">
<path d="M17.0933 9.74715V13.834C17.0933 14.0996 17.083 14.3551 17.0524 14.6003C16.8174 17.3589 15.1929 18.728 12.1993 18.728H11.7906C11.5351 18.728 11.2899 18.8506 11.1367 19.0549L9.91063 20.6897C9.36912 21.4151 8.49043 21.4151 7.94892 20.6897L6.72286 19.0549C6.59003 18.8812 6.29375 18.728 6.06898 18.728H5.6603C2.40103 18.728 0.766285 17.9209 0.766285 13.834V9.74715C0.766285 6.75353 2.14561 5.12901 4.89401 4.89401C5.13922 4.86336 5.39465 4.85314 5.6603 4.85314H12.1993C15.4585 4.85314 17.0933 6.48788 17.0933 9.74715Z" stroke="white" stroke-width="1.5" stroke-miterlimit="10" stroke-linecap="round" stroke-linejoin="round"/>
<path d="M21.1801 5.6603V9.74715C21.1801 12.751 19.8008 14.3653 17.0524 14.6003C17.0831 14.3551 17.0933 14.0996 17.0933 13.834V9.74715C17.0933 6.48788 15.4585 4.85314 12.1993 4.85314H5.66033C5.39468 4.85314 5.13926 4.86336 4.89404 4.89401C5.12904 2.14561 6.75356 0.766285 9.74718 0.766285H16.2861C19.5454 0.766285 21.1801 2.40103 21.1801 5.6603Z" stroke="white" stroke-width="1.5" stroke-miterlimit="10" stroke-linecap="round" stroke-linejoin="round"/>
<path d="M12.5114 12.2606H12.5206" stroke="white" stroke-width="2" stroke-linecap="round" stroke-linejoin="round"/>
<path d="M8.93539 12.2606H8.94458" stroke="white" stroke-width="2" stroke-linecap="round" stroke-linejoin="round"/>
<path d="M5.35939 12.2606H5.36859" stroke="white" stroke-width="2" stroke-linecap="round" stroke-linejoin="round"/>
</svg>
